<mxfile host="app.diagrams.net" modified="2023-04-06T02:48:50.196Z" agent="5.0 (Macintosh; Intel Mac OS X 10_15_7) AppleWebKit/537.36 (KHTML, like Gecko) Chrome/111.0.0.0 Safari/537.36" version="20.6.0" etag="MnuaC_thVJiGwFc7i2gt" type="github">
  <diagram id="NH2aNnyyHRnLHomX9WIA" name="第 1 页">
    <mxGraphModel dx="1234" dy="666" grid="1" gridSize="10" guides="1" tooltips="1" connect="1" arrows="1" fold="1" page="1" pageScale="1" pageWidth="827" pageHeight="1169" math="0" shadow="0">
      <root>
        <mxCell id="0" />
        <mxCell id="1" parent="0" />
        <mxCell id="PXlvr3E9Jeof-VtC2QAi-3" style="edgeStyle=orthogonalEdgeStyle;rounded=0;orthogonalLoop=1;jettySize=auto;html=1;exitX=1;exitY=0.5;exitDx=0;exitDy=0;entryX=0;entryY=0.5;entryDx=0;entryDy=0;" edge="1" parent="1" source="PXlvr3E9Jeof-VtC2QAi-1" target="PXlvr3E9Jeof-VtC2QAi-2">
          <mxGeometry relative="1" as="geometry" />
        </mxCell>
        <mxCell id="PXlvr3E9Jeof-VtC2QAi-1" value="Region Hive&lt;br&gt;Incremental Data" style="rounded=0;whiteSpace=wrap;html=1;" vertex="1" parent="1">
          <mxGeometry x="140" y="220" width="120" height="60" as="geometry" />
        </mxCell>
        <mxCell id="PXlvr3E9Jeof-VtC2QAi-5" style="edgeStyle=orthogonalEdgeStyle;rounded=0;orthogonalLoop=1;jettySize=auto;html=1;exitX=1;exitY=0.5;exitDx=0;exitDy=0;entryX=0;entryY=0.5;entryDx=0;entryDy=0;" edge="1" parent="1" source="PXlvr3E9Jeof-VtC2QAi-2" target="PXlvr3E9Jeof-VtC2QAi-4">
          <mxGeometry relative="1" as="geometry" />
        </mxCell>
        <mxCell id="PXlvr3E9Jeof-VtC2QAi-2" value="New Temp Table In Region Hive" style="rounded=0;whiteSpace=wrap;html=1;" vertex="1" parent="1">
          <mxGeometry x="330" y="220" width="120" height="60" as="geometry" />
        </mxCell>
        <mxCell id="PXlvr3E9Jeof-VtC2QAi-8" style="edgeStyle=orthogonalEdgeStyle;rounded=0;orthogonalLoop=1;jettySize=auto;html=1;exitX=0.5;exitY=1;exitDx=0;exitDy=0;" edge="1" parent="1" source="PXlvr3E9Jeof-VtC2QAi-4" target="PXlvr3E9Jeof-VtC2QAi-6">
          <mxGeometry relative="1" as="geometry" />
        </mxCell>
        <mxCell id="PXlvr3E9Jeof-VtC2QAi-4" value="Sync To Local Hbase/S3&amp;nbsp;&amp;nbsp;" style="rounded=0;whiteSpace=wrap;html=1;" vertex="1" parent="1">
          <mxGeometry x="520" y="220" width="120" height="60" as="geometry" />
        </mxCell>
        <mxCell id="PXlvr3E9Jeof-VtC2QAi-11" style="edgeStyle=orthogonalEdgeStyle;rounded=0;orthogonalLoop=1;jettySize=auto;html=1;exitX=0;exitY=0.25;exitDx=0;exitDy=0;entryX=1.033;entryY=0.4;entryDx=0;entryDy=0;entryPerimeter=0;" edge="1" parent="1" source="PXlvr3E9Jeof-VtC2QAi-6" target="PXlvr3E9Jeof-VtC2QAi-7">
          <mxGeometry relative="1" as="geometry" />
        </mxCell>
        <mxCell id="PXlvr3E9Jeof-VtC2QAi-12" style="edgeStyle=orthogonalEdgeStyle;rounded=0;orthogonalLoop=1;jettySize=auto;html=1;exitX=0;exitY=0.75;exitDx=0;exitDy=0;entryX=1;entryY=0.5;entryDx=0;entryDy=0;" edge="1" parent="1" source="PXlvr3E9Jeof-VtC2QAi-6" target="PXlvr3E9Jeof-VtC2QAi-10">
          <mxGeometry relative="1" as="geometry" />
        </mxCell>
        <mxCell id="PXlvr3E9Jeof-VtC2QAi-14" style="edgeStyle=orthogonalEdgeStyle;rounded=0;orthogonalLoop=1;jettySize=auto;html=1;exitX=0.5;exitY=1;exitDx=0;exitDy=0;entryX=1;entryY=0.5;entryDx=0;entryDy=0;dashed=1;" edge="1" parent="1" source="PXlvr3E9Jeof-VtC2QAi-6" target="PXlvr3E9Jeof-VtC2QAi-13">
          <mxGeometry relative="1" as="geometry" />
        </mxCell>
        <mxCell id="PXlvr3E9Jeof-VtC2QAi-6" value="Spark DQC" style="rounded=0;whiteSpace=wrap;html=1;" vertex="1" parent="1">
          <mxGeometry x="520" y="370" width="120" height="60" as="geometry" />
        </mxCell>
        <mxCell id="PXlvr3E9Jeof-VtC2QAi-7" value="Seatalk Alert" style="rounded=0;whiteSpace=wrap;html=1;" vertex="1" parent="1">
          <mxGeometry x="330" y="320" width="120" height="60" as="geometry" />
        </mxCell>
        <mxCell id="PXlvr3E9Jeof-VtC2QAi-10" value="DQC Log File&lt;br&gt;" style="rounded=0;whiteSpace=wrap;html=1;" vertex="1" parent="1">
          <mxGeometry x="330" y="420" width="120" height="60" as="geometry" />
        </mxCell>
        <mxCell id="PXlvr3E9Jeof-VtC2QAi-13" value="Some Dashboard" style="rounded=0;whiteSpace=wrap;html=1;dashed=1;" vertex="1" parent="1">
          <mxGeometry x="330" y="525" width="120" height="60" as="geometry" />
        </mxCell>
      </root>
    </mxGraphModel>
  </diagram>
</mxfile>
